<svg xmlns="http://www.w3.org/2000/svg" width="869" height="863" viewBox="0 0 869 863">
  <g id="Groupe_20" data-name="Groupe 20" transform="translate(-99 -127)">
    <g id="Spheres">
      <circle id="Ellipse_14" data-name="Ellipse 14" cx="418" cy="418" r="418" transform="translate(132 132)" fill="#f9dbd2"/>
      <circle id="Ellipse_17" data-name="Ellipse 17" cx="16.5" cy="16.5" r="16.5" transform="translate(209 693)" fill="#fbcd59"/>
      <circle id="Ellipse_15" data-name="Ellipse 15" cx="50" cy="50" r="50" transform="translate(99 649)" fill="#fbcd59"/>
      <circle id="Ellipse_18" data-name="Ellipse 18" cx="27.5" cy="27.5" r="27.5" transform="translate(165 539)" fill="#fff"/>
      <circle id="Ellipse_19" data-name="Ellipse 19" cx="11" cy="11" r="11" transform="translate(209 616)" fill="#fff"/>
      <circle id="Ellipse_20" data-name="Ellipse 20" cx="22" cy="22" r="22" transform="translate(825 820)" fill="#fbcd59"/>
      <circle id="Ellipse_21" data-name="Ellipse 21" cx="44" cy="44" r="44" transform="translate(858 127)" fill="#f1bc19"/>
      <circle id="Ellipse_22" data-name="Ellipse 22" cx="11" cy="11" r="11" transform="translate(831 132)" fill="#f1bc19"/>
      <circle id="Ellipse_23" data-name="Ellipse 23" cx="22" cy="22" r="22" transform="translate(924 242)" fill="#ee3e54"/>
      <circle id="Ellipse_24" data-name="Ellipse 24" cx="22" cy="22" r="22" transform="translate(242 946)" fill="#ee3e54"/>
    </g>
    <g id="Forme" transform="translate(3126 4105)" fill="#60be92">
      <path d="M -2575.99951171875 -3253.5 C -2624.0966796875 -3253.5 -2664.61181640625 -3280.29736328125 -2668.236328125 -3314.5068359375 L -2668.706298828125 -3318.942138671875 L -2672.827392578125 -3320.64697265625 L -2676.540771484375 -3322.183349609375 L -2680.659423828125 -3320.26806640625 C -2689.438720703125 -3314.37109375 -2700.519287109375 -3311.253662109375 -2712.70263671875 -3311.2529296875 C -2737.3349609375 -3311.25146484375 -2764.599853515625 -3323.8095703125 -2785.63623046875 -3344.84619140625 C -2817.9208984375 -3377.13037109375 -2828.5556640625 -3422.157958984375 -2810.3740234375 -3449.584228515625 L -2808.15283203125 -3452.934326171875 L -2809.712890625 -3456.638916015625 L -2810.353271484375 -3458.1728515625 L -2812.058349609375 -3462.293701171875 L -2816.4931640625 -3462.763671875 C -2850.70263671875 -3466.388427734375 -2877.500244140625 -3506.9033203125 -2877.500244140625 -3554.999755859375 C -2877.500244140625 -3603.0966796875 -2850.70263671875 -3643.61181640625 -2816.492919921875 -3647.236572265625 L -2812.056884765625 -3647.70654296875 L -2810.352294921875 -3651.8291015625 L -2809.833740234375 -3653.073486328125 L -2808.2880859375 -3656.75634765625 L -2810.481689453125 -3660.094482421875 C -2828.505126953125 -3687.523681640625 -2817.823486328125 -3732.481201171875 -2785.635498046875 -3764.66943359375 C -2764.600830078125 -3785.7041015625 -2737.335693359375 -3798.261962890625 -2712.701171875 -3798.261962890625 C -2700.703369140625 -3798.261962890625 -2689.757080078125 -3795.233642578125 -2681.045654296875 -3789.504638671875 L -2677.7060546875 -3787.308349609375 L -2674.020751953125 -3788.85595703125 L -2672.82861328125 -3789.3525390625 L -2668.706298828125 -3791.05712890625 L -2668.236328125 -3795.4931640625 C -2664.61181640625 -3829.70263671875 -2624.0966796875 -3856.500244140625 -2575.99951171875 -3856.500244140625 C -2527.903076171875 -3856.500244140625 -2487.38818359375 -3829.702880859375 -2483.763671875 -3795.493408203125 L -2483.2939453125 -3791.058837890625 L -2479.173095703125 -3789.353515625 L -2475.454345703125 -3787.814697265625 L -2471.320068359375 -3789.73193359375 C -2462.531494140625 -3795.64990234375 -2451.435546875 -3798.7783203125 -2439.23193359375 -3798.7783203125 C -2414.59814453125 -3798.7783203125 -2387.333251953125 -3786.2197265625 -2366.297607421875 -3765.18408203125 C -2333.975830078125 -3732.8623046875 -2323.35888671875 -3687.80810546875 -2341.60205078125 -3660.3837890625 L -2343.832763671875 -3657.0302734375 L -2342.269287109375 -3653.318603515625 L -2341.646728515625 -3651.826904296875 L -2339.94140625 -3647.706298828125 L -2335.507080078125 -3647.236572265625 C -2301.29736328125 -3643.61181640625 -2274.5 -3603.0966796875 -2274.5 -3554.999755859375 C -2274.5 -3506.903076171875 -2301.29736328125 -3466.38818359375 -2335.5068359375 -3462.763671875 L -2339.94287109375 -3462.293701171875 L -2341.6474609375 -3458.171142578125 L -2342.141357421875 -3456.986083984375 L -2343.68798828125 -3453.298095703125 L -2341.4873046875 -3449.958740234375 C -2323.41259765625 -3422.5302734375 -2334.07861328125 -3377.550048828125 -2366.297607421875 -3345.330810546875 C -2387.330078125 -3324.298583984375 -2414.595458984375 -3311.74072265625 -2439.23291015625 -3311.739013671875 C -2451.23974609375 -3311.738037109375 -2462.19384765625 -3314.771240234375 -2470.91064453125 -3320.51025390625 L -2474.250244140625 -3322.708984375 L -2477.937255859375 -3321.161865234375 L -2479.1708984375 -3320.64794921875 L -2483.293701171875 -3318.943359375 L -2483.763671875 -3314.507080078125 C -2487.388427734375 -3280.29736328125 -2527.903076171875 -3253.5 -2575.99951171875 -3253.5 Z" stroke="none"/>
      <path d="M -2575.99951171875 -3261 C -2531.6865234375 -3261 -2494.447998046875 -3284.85009765625 -2491.221923828125 -3315.29736328125 L -2490.28173828125 -3324.17138671875 L -2473.466552734375 -3331.172607421875 L -2466.786376953125 -3326.7744140625 C -2459.297607421875 -3321.843994140625 -2449.77001953125 -3319.23828125 -2439.2333984375 -3319.239013671875 C -2416.541015625 -3319.24072265625 -2391.258056640625 -3330.97705078125 -2371.60107421875 -3350.634033203125 C -2341.84716796875 -3380.38818359375 -2331.59326171875 -3421.314453125 -2347.749755859375 -3445.83203125 L -2352.150634765625 -3452.510498046875 L -2345.16845703125 -3469.281982421875 L -2336.297119140625 -3470.221923828125 C -2305.85009765625 -3473.447998046875 -2282 -3510.686767578125 -2282 -3554.999755859375 C -2282 -3599.313232421875 -2305.85009765625 -3636.55224609375 -2336.29736328125 -3639.7783203125 L -2345.16796875 -3640.71826171875 L -2349.1806640625 -3650.406005859375 L -2352.30859375 -3657.830078125 L -2347.846435546875 -3664.53759765625 C -2331.54296875 -3689.04638671875 -2341.755126953125 -3730.03515625 -2371.60107421875 -3759.880859375 C -2391.260986328125 -3779.541015625 -2416.54345703125 -3791.2783203125 -2439.23193359375 -3791.2783203125 C -2449.937744140625 -3791.2783203125 -2459.5849609375 -3788.59228515625 -2467.130859375 -3783.510986328125 L -2474.603271484375 -3779.345947265625 L -2490.2822265625 -3785.83349609375 L -2491.221923828125 -3794.703125 C -2494.447998046875 -3825.150146484375 -2531.6865234375 -3849.000244140625 -2575.99951171875 -3849.000244140625 C -2620.313232421875 -3849.000244140625 -2657.55224609375 -3825.150146484375 -2660.778076171875 -3794.703125 L -2661.718017578125 -3785.83056640625 L -2678.48681640625 -3778.84521484375 L -2685.166748046875 -3783.238525390625 C -2692.650634765625 -3788.160400390625 -2702.172119140625 -3790.761962890625 -2712.701171875 -3790.761962890625 C -2735.390380859375 -3790.761962890625 -2760.673095703125 -3779.025146484375 -2780.33203125 -3759.365966796875 C -2810.05859375 -3729.6396484375 -2820.325439453125 -3688.732666015625 -2804.213623046875 -3664.212890625 L -2799.827392578125 -3657.537353515625 L -2806.83056640625 -3640.71826171875 L -2815.70263671875 -3639.7783203125 C -2846.14990234375 -3636.55224609375 -2870.000244140625 -3599.313232421875 -2870.000244140625 -3554.999755859375 C -2870.000244140625 -3510.686767578125 -2846.150146484375 -3473.447998046875 -2815.702880859375 -3470.221923828125 L -2806.833984375 -3469.2822265625 L -2799.680908203125 -3452.140380859375 L -2804.122802734375 -3445.440185546875 C -2820.372802734375 -3420.927734375 -2810.1455078125 -3379.961669921875 -2780.3330078125 -3350.1494140625 C -2760.67236328125 -3330.488525390625 -2735.39013671875 -3318.75146484375 -2712.703125 -3318.7529296875 C -2702.014404296875 -3318.753662109375 -2692.3798828125 -3321.430419921875 -2684.84130859375 -3326.493896484375 L -2677.3876953125 -3330.649169921875 L -2661.718017578125 -3324.168701171875 L -2660.778076171875 -3315.297119140625 C -2657.55224609375 -3284.85009765625 -2620.313232421875 -3261 -2575.99951171875 -3261 M -2575.99951171875 -3246 C -2628.579345703125 -3246 -2671.680419921875 -3275.828369140625 -2675.694580078125 -3313.716796875 C -2675.954833984375 -3313.824462890625 -2676.2177734375 -3313.93359375 -2676.4775390625 -3314.042236328125 C -2686.78564453125 -3307.118408203125 -2699.291015625 -3303.75390625 -2712.7021484375 -3303.7529296875 C -2738.44482421875 -3303.751220703125 -2767.53955078125 -3316.142333984375 -2790.939697265625 -3339.542724609375 C -2826.42138671875 -3375.0244140625 -2836.590087890625 -3423.612060546875 -2816.625 -3453.728271484375 C -2816.8466796875 -3454.254638671875 -2817.06494140625 -3454.77734375 -2817.283447265625 -3455.305419921875 C -2855.171875 -3459.31982421875 -2885.000244140625 -3502.420654296875 -2885.000244140625 -3554.999755859375 C -2885.000244140625 -3607.57861328125 -2855.171630859375 -3650.680419921875 -2817.283203125 -3654.69482421875 C -2817.10595703125 -3655.12353515625 -2816.928955078125 -3655.54833984375 -2816.74951171875 -3655.975830078125 C -2836.547607421875 -3686.105712890625 -2826.347412109375 -3734.56396484375 -2790.938720703125 -3769.97265625 C -2755.523681640625 -3805.3876953125 -2707.05322265625 -3815.585693359375 -2676.924560546875 -3795.77099609375 C -2676.512451171875 -3795.944091796875 -2676.10791015625 -3796.112548828125 -2675.694580078125 -3796.283447265625 C -2671.680419921875 -3834.171875 -2628.579345703125 -3864.000244140625 -2575.99951171875 -3864.000244140625 C -2523.420654296875 -3864.000244140625 -2480.31982421875 -3834.172119140625 -2476.305419921875 -3796.28369140625 C -2476.03759765625 -3796.1728515625 -2475.77685546875 -3796.064453125 -2475.50927734375 -3795.952880859375 C -2445.4189453125 -3816.215576171875 -2396.60693359375 -3806.10009765625 -2360.994384765625 -3770.487548828125 C -2325.484130859375 -3734.977294921875 -2315.32763671875 -3686.340087890625 -2335.357421875 -3656.229736328125 C -2335.14208984375 -3655.718505859375 -2334.928955078125 -3655.20751953125 -2334.716796875 -3654.69482421875 C -2296.828369140625 -3650.680419921875 -2267 -3607.57861328125 -2267 -3554.999755859375 C -2267 -3502.420654296875 -2296.828125 -3459.31982421875 -2334.716552734375 -3455.305419921875 C -2334.88427734375 -3454.89990234375 -2335.05517578125 -3454.490234375 -2335.224853515625 -3454.085693359375 C -2315.372314453125 -3423.95947265625 -2325.56298828125 -3375.459228515625 -2360.994384765625 -3340.027587890625 C -2384.390869140625 -3316.631103515625 -2413.491943359375 -3304.240966796875 -2439.232177734375 -3304.239013671875 C -2452.465087890625 -3304.238037109375 -2464.805419921875 -3307.510986328125 -2475.034912109375 -3314.24609375 C -2475.46240234375 -3314.066650390625 -2475.876708984375 -3313.89404296875 -2476.305419921875 -3313.716796875 C -2480.31982421875 -3275.828369140625 -2523.420654296875 -3246 -2575.99951171875 -3246 Z" stroke="none" fill="#1f212b"/>
    </g>
    <g id="Check" transform="translate(3283.753 4304.235)" fill="#fefdef">
      <path d="M -2754.892578125 -3656.20166015625 C -2759.967529296875 -3656.20166015625 -2764.73876953125 -3658.17822265625 -2768.3271484375 -3661.766845703125 L -2868.029296875 -3761.46923828125 C -2871.6181640625 -3765.0576171875 -2873.5947265625 -3769.82861328125 -2873.5947265625 -3774.90380859375 C -2873.5947265625 -3779.97900390625 -2871.6181640625 -3784.75048828125 -2868.029296875 -3788.339111328125 C -2864.44091796875 -3791.927490234375 -2859.669677734375 -3793.90380859375 -2854.594482421875 -3793.90380859375 C -2849.519287109375 -3793.90380859375 -2844.747802734375 -3791.927490234375 -2841.158935546875 -3788.339111328125 L -2756.519775390625 -3703.69970703125 L -2754.751953125 -3701.931884765625 L -2752.984130859375 -3703.69970703125 L -2609.655029296875 -3847.02880859375 C -2606.066162109375 -3850.61767578125 -2601.294677734375 -3852.59423828125 -2596.219482421875 -3852.59423828125 C -2591.144287109375 -3852.59423828125 -2586.373291015625 -3850.61767578125 -2582.784912109375 -3847.029052734375 C -2579.196044921875 -3843.4404296875 -2577.219482421875 -3838.669189453125 -2577.219482421875 -3833.59423828125 C -2577.219482421875 -3828.51904296875 -2579.196044921875 -3823.74755859375 -2582.784912109375 -3820.15869140625 L -2741.176513671875 -3661.76708984375 C -2744.764892578125 -3658.178955078125 -2749.53662109375 -3656.20263671875 -2754.613037109375 -3656.202392578125 L -2754.687255859375 -3656.20263671875 L -2754.70166015625 -3656.20263671875 L -2754.71630859375 -3656.20263671875 C -2754.77490234375 -3656.2021484375 -2754.833740234375 -3656.20166015625 -2754.892578125 -3656.20166015625 Z" stroke="none"/>
      <path d="M -2754.892578125 -3658.70166015625 C -2754.84033203125 -3658.70166015625 -2754.78759765625 -3658.7021484375 -2754.735595703125 -3658.702392578125 L -2754.675048828125 -3658.70263671875 L -2754.613037109375 -3658.702392578125 C -2750.20458984375 -3658.70263671875 -2746.060302734375 -3660.4189453125 -2742.9443359375 -3663.534912109375 L -2584.552734375 -3821.926513671875 C -2581.43603515625 -3825.04296875 -2579.719482421875 -3829.186767578125 -2579.719482421875 -3833.59423828125 C -2579.719482421875 -3838.00146484375 -2581.435791015625 -3842.144775390625 -2584.552978515625 -3845.26123046875 C -2587.6689453125 -3848.3779296875 -2591.812255859375 -3850.09423828125 -2596.219482421875 -3850.09423828125 C -2600.626953125 -3850.09423828125 -2604.770751953125 -3848.377685546875 -2607.88720703125 -3845.260986328125 L -2754.751953125 -3698.396484375 L -2758.28759765625 -3701.931884765625 L -2842.9267578125 -3786.5712890625 C -2846.043212890625 -3789.6875 -2850.18701171875 -3791.40380859375 -2854.594482421875 -3791.40380859375 C -2859.001953125 -3791.40380859375 -2863.1455078125 -3789.6875 -2866.26171875 -3786.5712890625 C -2869.378173828125 -3783.454833984375 -2871.0947265625 -3779.311279296875 -2871.0947265625 -3774.90380859375 C -2871.0947265625 -3770.49658203125 -2869.37841796875 -3766.353271484375 -2866.261474609375 -3763.237060546875 L -2766.559326171875 -3663.53466796875 C -2763.443115234375 -3660.41796875 -2759.2998046875 -3658.70166015625 -2754.892578125 -3658.70166015625 M -2754.892578125 -3653.70166015625 C -2760.39501953125 -3653.70166015625 -2765.897216796875 -3655.801025390625 -2770.094970703125 -3659.999267578125 L -2869.797119140625 -3759.701416015625 C -2878.19384765625 -3768.096923828125 -2878.19384765625 -3781.71044921875 -2869.797119140625 -3790.10693359375 C -2861.4013671875 -3798.502197265625 -2847.7880859375 -3798.502685546875 -2839.391357421875 -3790.10693359375 L -2754.751953125 -3705.467529296875 L -2611.4228515625 -3848.796630859375 C -2603.02587890625 -3857.193115234375 -2589.41259765625 -3857.193115234375 -2581.01708984375 -3848.796630859375 C -2572.620361328125 -3840.40087890625 -2572.620361328125 -3826.78759765625 -2581.01708984375 -3818.390869140625 L -2739.40869140625 -3659.999267578125 C -2743.606689453125 -3655.801513671875 -2749.110595703125 -3653.70263671875 -2754.61279296875 -3653.702392578125 C -2754.706787109375 -3653.70263671875 -2754.799072265625 -3653.70166015625 -2754.892578125 -3653.70166015625 Z" stroke="none" fill="#1f212b"/>
    </g>
    <path id="PtitsTraits" d="M186.55,476.408c-5.2-6.8-10.408-8-41.634-8-32.826,0-36.829-.8-52.041-11.6-27.223-18.8-34.428-34-34.428-74.391,0,0-.027-30.529-1.408-33.878s-23.412-23.315-23.412-23.315C9.608,303.229,0,284.831,0,262.034c0-16,8.006-39.6,16.413-47.995,13.611-13.6,16.413-8,5.2,10.4-12.41,21.2-14.011,49.594-4.4,68.392,3.6,6.8,16.413,20.8,28.423,31.2,0,0,15.773,14.857,18.921,19.609s3.1,31.985,3.1,31.985c-.8,35.2,4,49.594,21.218,65.193,16.813,15.6,27.622,18.8,61.649,18,0,0,19.865-3.985,32.876,1.515s17.958,19.245,19.166,20.483,36.829,34.4,61.65,34.4,33.87-3.267,60.978-34.224c0,0,6.756-15.6,20.167-21.579s34.548-.991,34.548-.991c40.032,0,54.443-6.4,71.658-32,8.006-12.4,9.207-18,8.407-47.194,0,0-2.692-28.62,1.328-38.027s21.036-17.835,23.727-20.151,28.188-29.011,31.79-41.809c5.2-17.6,11.609-22.4,11.609-8.8,0,20-20.016,47.594-50.04,69.592-6.805,5.2-8.006,10.4-8.006,41.6,0,32.8-.8,36.8-11.609,51.993-18.759,27.515-33.937,34.356-75.029,34.4h-.632c-7.573.1-9.219-.216-11.524-.53-2.471-.337-5.7-.674-17.789-.5-5.9,1.263-9.562,6.093-11.921,9.431-15.212,20.8-39.632,42.4-53.242,46a92.577,92.577,0,0,1-24.376,3.487C235.633,525.89,211.091,510.043,186.55,476.408ZM51.241,185.243c5.2-6,6.805-15.2,7.206-42.395,0-40.8,7.207-55.994,34.428-74.791,15.212-10.8,19.616-11.6,51.241-11.6h34.428l23.619-25.2c16.413-17.2,28.423-26.4,38.03-28.8,34.028-8.4,72.859,5.2,92.875,32.8,12.811,18.4,4.8,18.4-14.011.4-22.018-21.2-32.025-26-54.844-26-24.821,0-38.832,7.6-61.65,34.4l-19.215,22.4H149.72c-35.228,0-44.836,2.8-60.848,17.6-17.214,15.2-21.617,29.2-21.217,64.792.4,28.8-.8,34.8-7.607,41.6-5.806,5.8-10.58,8.373-13.241,8.373C43.045,198.815,43.5,193.675,51.241,185.243Zm417.136,5.2c-4.832-4.828-7.653-9.292-8.392-21.585-.327-5.43.386-12.059.386-20.41,0-15.5.643-26.481-1.409-35.03-3.147-13.113-10.6-21.434-22.21-32.562-6.805-6.8-12.41-13.2-12.41-15.2,0-15.2,38.431,24.4,44.036,45.195,2.4,8.8,3.2,26,1.6,38.8A128.56,128.56,0,0,0,469,166.523c-.027,10.562.829,12.449,6.331,18.067,6.313,4.072,9.058,10.251,9.058,11.451a2.259,2.259,0,0,1-2.5,2.548C478.822,198.59,473.423,195.485,468.377,190.443ZM366.295,58.458c3.2-5.2,12.81-5.2,16.013-.4a4.76,4.76,0,0,1-2,6.4,18.039,18.039,0,0,1-8.629,1.99C366,66.447,361.174,64.085,366.295,58.458Zm35.96,3.327c-6.264-.757-10.264.126-9.935-3.726.612-7.175,19.036-3.911,22.239.888,1.2,2-.525,5.077-2.527,6.276a1.987,1.987,0,0,1-.941.254C409.236,65.478,407.744,62.483,402.254,61.785Z" transform="translate(285.788 287.054)"/>
  </g>
</svg>
