<svg width="140" height="111" viewBox="0 0 140 111" fill="none" xmlns="http://www.w3.org/2000/svg">
<path d="M89.6544 42.8618C114.967 8.27475 135.572 5.83175 135.383 6.52075C135.695 6.45375 112.585 -9.10324 94.1524 8.07876C87.0864 14.5568 82.1774 20.1278 73.9944 31.3358C78.2214 37.2228 82.2434 43.0408 85.7154 48.0758C88.2594 44.4548 86.9344 46.4408 89.6544 42.8618Z" fill="#000"/>
<path d="M139.166 13.0768C139.156 12.9488 132 19.4568 122.351 32.8828C112.81 45.4458 100.778 64.9288 93.5095 70.8378C93.5085 70.8398 88.7314 63.9148 81.7404 53.7798C78.2564 48.7438 74.2244 42.9398 69.9965 37.0878C61.7995 25.7018 52.8904 14.4208 45.8384 8.07876C27.4064 -9.10324 4.29645 6.45375 4.60845 6.52075C4.41945 5.83175 25.0244 8.27475 50.3374 42.8618C53.0571 46.4412 55.6958 50.0814 58.2514 53.7798C54.3305 59.4672 50.4075 65.1532 46.4824 70.8378C39.2134 64.9277 27.1814 45.4458 17.6404 32.8828C7.99245 19.4558 0.834448 12.9488 0.826448 13.0768C0.711448 13.7718 -1.62355 19.4408 2.10845 31.1348C6.08745 43.7688 16.1324 62.4268 46.4834 110.804C46.4754 110.877 55.5335 94.7588 69.9965 71.6038C84.4594 94.7588 93.5175 110.878 93.5095 110.804C123.86 62.4268 133.905 43.7678 137.885 31.1348C141.615 19.4408 139.281 13.7718 139.166 13.0768Z" fill="#000"/></svg>
